<svg xmlns="http://www.w3.org/2000/svg" version="1.1" xmlns:xlink="http://www.w3.org/1999/xlink" xmlns:svgjs="http://svgjs.dev/svgjs" width="128" height="128" viewBox="0 0 128 128"><g transform="matrix(0.8046875,0,0,0.8046875,12.333870967741937,26.959191017139503)"><svg viewBox="0 0 155 112" data-background-color="#ffffff" preserveAspectRatio="xMidYMid meet" height="92" width="128" xmlns="http://www.w3.org/2000/svg" xmlns:xlink="http://www.w3.org/1999/xlink"><g id="tight-bounds" transform="matrix(1,0,0,1,0.25,0.03810020876827025)"><svg viewBox="0 0 154.5 111.92379958246346" height="111.92379958246346" width="154.5"><g><svg viewBox="0 0 154.5 111.92379958246346" height="111.92379958246346" width="154.5"><g><svg viewBox="0 0 154.5 111.92379958246346" height="111.92379958246346" width="154.5"><g id="textblocktransform"><svg viewBox="0 0 154.5 111.92379958246346" height="111.92379958246346" width="154.5" id="textblock"><g><svg viewBox="0 0 154.5 111.92379958246346" height="111.92379958246346" width="154.5"><g transform="matrix(1,0,0,1,0,0)"><svg width="154.5" viewBox="1.75 -34.65 47.9 34.7" height="111.92379958246346" data-palette-color="#81c690"><path d="M3.45-29.7Q3.2-30.4 2.85-30.6 2.5-30.8 1.75-30.8L1.75-30.8 1.75-34.6Q1.95-34.65 2.35-34.65L2.35-34.65Q3.1-34.65 3.95-34.4 4.8-34.15 5.3-33.85L5.3-33.85Q5.95-33.45 6.43-32.77 6.9-32.1 7.15-31.35L7.15-31.35 14.8-7.2 15.1-5 15.45-7.2 24-34.35 27.7-34.35 36.3-7.2 36.65-5 36.95-7.2 45.55-34.35 49.65-34.35 38.45 0.05 34.75 0.05 25.85-27.35 16.95 0.05 13.25 0.05 3.45-29.7Z" opacity="1" transform="matrix(1,0,0,1,0,0)" fill="#81c690" class="undefined-text-0" data-fill-palette-color="primary" id="text-0"></path></svg></g></svg></g></svg></g></svg></g></svg></g><defs></defs></svg><rect width="154.5" height="111.92379958246346" fill="none" stroke="none" visibility="hidden"></rect></g></svg></g></svg>